<svg width="29" height="24" viewBox="0 0 29 24" fill="none" xmlns="http://www.w3.org/2000/svg">
<g clip-path="url(#clip0_2_115)">
<path d="M13.0941 14.1818V20.7273C13.0941 21.6364 12.7759 22.4091 12.1395 23.0455C11.5032 23.6818 10.7304 24 9.82136 24H3.2759C2.36681 24 1.59408 23.6818 0.957719 23.0455C0.321356 22.4091 0.00317383 21.6364 0.00317383 20.7273V8.72727C0.00317383 7.54545 0.233287 6.41761 0.693515 5.34375C1.15374 4.26989 1.7759 3.34091 2.55999 2.55682C3.34408 1.77273 4.27306 1.15057 5.34692 0.690341C6.42079 0.230114 7.54863 0 8.73045 0H9.82136C10.1168 0 10.3725 0.107955 10.5884 0.323864C10.8043 0.539773 10.9123 0.795455 10.9123 1.09091V3.27273C10.9123 3.56818 10.8043 3.82386 10.5884 4.03977C10.3725 4.25568 10.1168 4.36364 9.82136 4.36364H8.73045C7.5259 4.36364 6.49749 4.78977 5.64522 5.64205C4.79295 6.49432 4.36681 7.52273 4.36681 8.72727V9.27273C4.36681 9.72727 4.5259 10.1136 4.84408 10.4318C5.16226 10.75 5.54863 10.9091 6.00317 10.9091H9.82136C10.7304 10.9091 11.5032 11.2273 12.1395 11.8636C12.7759 12.5 13.0941 13.2727 13.0941 14.1818ZM28.3668 14.1818V20.7273C28.3668 21.6364 28.0486 22.4091 27.4123 23.0455C26.7759 23.6818 26.0032 24 25.0941 24H18.5486C17.6395 24 16.8668 23.6818 16.2304 23.0455C15.5941 22.4091 15.2759 21.6364 15.2759 20.7273V8.72727C15.2759 7.54545 15.506 6.41761 15.9662 5.34375C16.4265 4.26989 17.0486 3.34091 17.8327 2.55682C18.6168 1.77273 19.5458 1.15057 20.6197 0.690341C21.6935 0.230114 22.8214 0 24.0032 0H25.0941C25.3895 0 25.6452 0.107955 25.8611 0.323864C26.077 0.539773 26.185 0.795455 26.185 1.09091V3.27273C26.185 3.56818 26.077 3.82386 25.8611 4.03977C25.6452 4.25568 25.3895 4.36364 25.0941 4.36364H24.0032C22.7986 4.36364 21.7702 4.78977 20.9179 5.64205C20.0657 6.49432 19.6395 7.52273 19.6395 8.72727V9.27273C19.6395 9.72727 19.7986 10.1136 20.1168 10.4318C20.435 10.75 20.8214 10.9091 21.2759 10.9091H25.0941C26.0032 10.9091 26.7759 11.2273 27.4123 11.8636C28.0486 12.5 28.3668 13.2727 28.3668 14.1818Z" fill="white"/>
</g>
<defs>
<clipPath id="clip0_2_115">
<rect width="28.37" height="24" fill="white"/>
</clipPath>
</defs>
</svg>
